<svg xmlns="http://www.w3.org/2000/svg" viewBox="0 0 24 24" width="28" height="28" fill="none" aria-hidden="true">
  <circle cx="12" cy="12" r="3" fill="#b91c1c" />
  <g stroke="#b91c1c" stroke-width="1.2" stroke-linecap="round">
    <path d="M19 12a7 7 0 0 0-.2-1.6l1.8-1.1-1.2-2.1-2.1.6A7 7 0 0 0 14 5.2L13.4 3h-2.8L9.9 5.2A7 7 0 0 0 7 6.6L4.9 6.1 3.7 8.2l1.8 1.1A7 7 0 0 0 5 12c0 .5.1 1 .2 1.6L3.4 14.7 4.6 16.8l2.1-.6A7 7 0 0 0 9 18.8L9.6 21h2.8l.6-2.2A7 7 0 0 0 15 17.4l2.1.6 1.2-2.1-1.8-1.1c.1-.5.2-1 .2-1.6z"/>
  </g>
</svg>
